<svg width="640" height="420" viewBox="0 0 640 420" fill="none" xmlns="http://www.w3.org/2000/svg">
  <defs>
    <linearGradient id="sky" x1="0" y1="0" x2="1" y2="1">
      <stop offset="0" stop-color="#e2edf7" />
      <stop offset="1" stop-color="#ffffff" />
    </linearGradient>
    <linearGradient id="snow" x1="0" y1="0" x2="1" y2="1">
      <stop offset="0" stop-color="#ffffff" />
      <stop offset="1" stop-color="#d9e2ec" />
    </linearGradient>
    <linearGradient id="coin" x1="0" y1="0" x2="1" y2="1">
      <stop offset="0" stop-color="#7caf4a" />
      <stop offset="1" stop-color="#2f6da1" />
    </linearGradient>
  </defs>
  <rect width="640" height="420" rx="24" fill="url(#sky)" />
  <path d="M0 310C120 240 260 260 340 220C460 160 520 170 640 110V420H0V310Z" fill="url(#snow)" />
  <circle cx="420" cy="180" r="96" fill="#f4f7fb" stroke="#d9e2ec" stroke-width="4" />
  <circle cx="420" cy="180" r="72" fill="url(#coin)" opacity="0.9" />
  <path d="M420 128V232" stroke="#ffffff" stroke-width="10" stroke-linecap="round" />
  <path d="M392 156C392 140 405 128 420 128H440C455 128 468 140 468 156C468 172 455 184 440 184H400C385 184 372 196 372 212C372 228 385 240 400 240H420C435 240 448 228 448 212" stroke="#ffffff" stroke-width="10" stroke-linecap="round" stroke-linejoin="round" />
</svg>
